# xmcd
#
# Track frame offsets: 
#        150
#        18980
#        55467
#
# Disc length: 1201 seconds
#
# Revision: 0
# Processed by: cddbd v1.5.2PL0 Copyright (c) Steve Scherf et al.
# Submitted via: ExactAudioCopyFreeDBPlugin 1.0
#
DISCID=1f04af03
DTITLE=Manchild - Nothing Without Me CD1
DYEAR=2001
DGENRE=Dance
TTITLE0=Nothing Without Me (Original)
TTITLE1=Nothing Without Me (Rocco And Heist - The Karma Mekanik Remix)
TTITLE2=Nothing Without Me (Olav Basoski Remix)
EXTD=
EXTT0=
EXTT1=
EXTT2=
PLAYORDER=
